solid JSxCAD
facet normal 0 1 0
outer loop
vertex -4.45 -4.5 0
vertex -1.65 -4.5 0.2
vertex -1.65 -4.5 0
endloop
endfacet
facet normal 0 1 0
outer loop
vertex -1.65 -4.5 0.2
vertex -4.45 -4.5 0
vertex -4.45 -4.5 0.2
endloop
endfacet
facet normal 0 -1 0
outer loop
vertex -4.45 4.5 0.2
vertex -1.65 4.5 0
vertex -1.65 4.5 0.2
endloop
endfacet
facet normal 0 -1 0
outer loop
vertex -1.65 4.5 0
vertex -4.45 4.5 0.2
vertex -4.45 4.5 0
endloop
endfacet
facet normal -1 0 0
outer loop
vertex -4.45 -4.5 0
vertex -4.45 -6.9 0.2
vertex -4.45 -4.5 0.2
endloop
endfacet
facet normal -1 0 0
outer loop
vertex -4.45 -6.9 0.2
vertex -4.45 -4.5 0
vertex -4.45 -6.9 0
endloop
endfacet
facet normal -1 0 0
outer loop
vertex -4.45 6.9 0
vertex -4.45 4.5 0.2
vertex -4.45 6.9 0.2
endloop
endfacet
facet normal -1 0 0
outer loop
vertex -4.45 4.5 0.2
vertex -4.45 6.9 0
vertex -4.45 4.5 0
endloop
endfacet
facet normal 1 0 0
outer loop
vertex -1.65 -6.9 0
vertex -1.65 -4.5 0.2
vertex -1.65 -6.9 0.2
endloop
endfacet
facet normal 1 0 0
outer loop
vertex -1.65 -4.5 0.2
vertex -1.65 -6.9 0
vertex -1.65 -4.5 0
endloop
endfacet
facet normal 1 0 0
outer loop
vertex -1.65 4.5 0
vertex -1.65 6.9 0.2
vertex -1.65 4.5 0.2
endloop
endfacet
facet normal 1 0 0
outer loop
vertex -1.65 6.9 0.2
vertex -1.65 4.5 0
vertex -1.65 6.9 0
endloop
endfacet
facet normal 0 -1 0
outer loop
vertex -4.45 -6.9 0.2
vertex -1.65 -6.9 0
vertex -1.65 -6.9 0.2
endloop
endfacet
facet normal 0 -1 0
outer loop
vertex -1.65 -6.9 0
vertex -4.45 -6.9 0.2
vertex -4.45 -6.9 0
endloop
endfacet
facet normal 0 0 1
outer loop
vertex -1.65 -4.5 0.2
vertex -4.45 -6.9 0.2
vertex -1.65 -6.9 0.2
endloop
endfacet
facet normal 0 0 1
outer loop
vertex -4.45 -6.9 0.2
vertex -1.65 -4.5 0.2
vertex -4.45 -4.5 0.2
endloop
endfacet
facet normal 0 0 1
outer loop
vertex -4.45 6.9 0.2
vertex -1.65 4.5 0.2
vertex -1.65 6.9 0.2
endloop
endfacet
facet normal 0 0 1
outer loop
vertex -1.65 4.5 0.2
vertex -4.45 6.9 0.2
vertex -4.45 4.5 0.2
endloop
endfacet
facet normal 0 0 -1
outer loop
vertex -1.65 4.5 0
vertex -4.45 6.9 0
vertex -1.65 6.9 0
endloop
endfacet
facet normal 0 0 -1
outer loop
vertex -4.45 6.9 0
vertex -1.65 4.5 0
vertex -4.45 4.5 0
endloop
endfacet
facet normal 0 0 -1
outer loop
vertex -4.45 -6.9 0
vertex -1.65 -4.5 0
vertex -1.65 -6.9 0
endloop
endfacet
facet normal 0 0 -1
outer loop
vertex -1.65 -4.5 0
vertex -4.45 -6.9 0
vertex -4.45 -4.5 0
endloop
endfacet
facet normal 0 1 0
outer loop
vertex -4.45 6.9 0
vertex -1.65 6.9 0.2
vertex -1.65 6.9 0
endloop
endfacet
facet normal 0 1 0
outer loop
vertex -1.65 6.9 0.2
vertex -4.45 6.9 0
vertex -4.45 6.9 0.2
endloop
endfacet
facet normal 0 1 0
outer loop
vertex 1.65 -4.5 0
vertex 4.45 -4.5 0.2
vertex 4.45 -4.5 0
endloop
endfacet
facet normal 0 1 0
outer loop
vertex 4.45 -4.5 0.2
vertex 1.65 -4.5 0
vertex 1.65 -4.5 0.2
endloop
endfacet
facet normal 0 -1 0
outer loop
vertex 1.65 4.5 0.2
vertex 4.45 4.5 0
vertex 4.45 4.5 0.2
endloop
endfacet
facet normal 0 -1 0
outer loop
vertex 4.45 4.5 0
vertex 1.65 4.5 0.2
vertex 1.65 4.5 0
endloop
endfacet
facet normal -1 0 0
outer loop
vertex 1.65 -4.5 0
vertex 1.65 -6.9 0.2
vertex 1.65 -4.5 0.2
endloop
endfacet
facet normal -1 0 0
outer loop
vertex 1.65 -6.9 0.2
vertex 1.65 -4.5 0
vertex 1.65 -6.9 0
endloop
endfacet
facet normal -1 0 0
outer loop
vertex 1.65 6.9 0
vertex 1.65 4.5 0.2
vertex 1.65 6.9 0.2
endloop
endfacet
facet normal -1 0 0
outer loop
vertex 1.65 4.5 0.2
vertex 1.65 6.9 0
vertex 1.65 4.5 0
endloop
endfacet
facet normal 1 0 0
outer loop
vertex 4.45 -6.9 0
vertex 4.45 -4.5 0.2
vertex 4.45 -6.9 0.2
endloop
endfacet
facet normal 1 0 0
outer loop
vertex 4.45 -4.5 0.2
vertex 4.45 -6.9 0
vertex 4.45 -4.5 0
endloop
endfacet
facet normal 1 0 0
outer loop
vertex 4.45 4.5 0
vertex 4.45 6.9 0.2
vertex 4.45 4.5 0.2
endloop
endfacet
facet normal 1 0 0
outer loop
vertex 4.45 6.9 0.2
vertex 4.45 4.5 0
vertex 4.45 6.9 0
endloop
endfacet
facet normal 0 -1 0
outer loop
vertex 1.65 -6.9 0
vertex 4.45 -6.9 0.2
vertex 1.65 -6.9 0.2
endloop
endfacet
facet normal 0 -1 0
outer loop
vertex 4.45 -6.9 0.2
vertex 1.65 -6.9 0
vertex 4.45 -6.9 0
endloop
endfacet
facet normal 0 0 1
outer loop
vertex 1.65 -4.5 0.2
vertex 4.45 -6.9 0.2
vertex 4.45 -4.5 0.2
endloop
endfacet
facet normal 0 0 1
outer loop
vertex 4.45 -6.9 0.2
vertex 1.65 -4.5 0.2
vertex 1.65 -6.9 0.2
endloop
endfacet
facet normal 0 0 1
outer loop
vertex 4.45 6.9 0.2
vertex 1.65 4.5 0.2
vertex 4.45 4.5 0.2
endloop
endfacet
facet normal 0 0 1
outer loop
vertex 1.65 4.5 0.2
vertex 4.45 6.9 0.2
vertex 1.65 6.9 0.2
endloop
endfacet
facet normal 0 0 -1
outer loop
vertex 1.65 4.5 0
vertex 4.45 6.9 0
vertex 4.45 4.5 0
endloop
endfacet
facet normal 0 0 -1
outer loop
vertex 4.45 6.9 0
vertex 1.65 4.5 0
vertex 1.65 6.9 0
endloop
endfacet
facet normal 0 0 -1
outer loop
vertex 4.45 -6.9 0
vertex 1.65 -4.5 0
vertex 4.45 -4.5 0
endloop
endfacet
facet normal 0 0 -1
outer loop
vertex 1.65 -4.5 0
vertex 4.45 -6.9 0
vertex 1.65 -6.9 0
endloop
endfacet
facet normal 0 1 0
outer loop
vertex 4.45 6.9 0
vertex 1.65 6.9 0.2
vertex 4.45 6.9 0.2
endloop
endfacet
facet normal 0 1 0
outer loop
vertex 1.65 6.9 0.2
vertex 4.45 6.9 0
vertex 1.65 6.9 0
endloop
endfacet
facet normal 0 0.8090173750627982 -0.5877847283202411
outer loop
vertex 0 -3.09093 7.50431
vertex 7.4 -1.9103 9.12931
vertex 7.4 -3.09093 7.50431
endloop
endfacet
facet normal 0 0.8090173750627982 -0.5877847283202411
outer loop
vertex 7.4 -1.9103 9.12931
vertex 0 -3.09093 7.50431
vertex 0 -1.9103 9.12931
endloop
endfacet
facet normal 0 0.30901515000768653 -0.9510571155644266
outer loop
vertex 0 -1.9103 9.12931
vertex 7.4 0 9.75
vertex 7.4 -1.9103 9.12931
endloop
endfacet
facet normal 0 0.30901515000768653 -0.9510571155644266
outer loop
vertex 7.4 0 9.75
vertex 0 -1.9103 9.12931
vertex 0 0 9.75
endloop
endfacet
facet normal 0 -0.30901515000768653 -0.9510571155644266
outer loop
vertex 7.4 0 9.75
vertex 0 1.9103 9.12931
vertex 7.4 1.9103 9.12931
endloop
endfacet
facet normal 0 -0.30901515000768653 -0.9510571155644266
outer loop
vertex 0 1.9103 9.12931
vertex 7.4 0 9.75
vertex 0 0 9.75
endloop
endfacet
facet normal 0 -0.8090173750627982 -0.5877847283202411
outer loop
vertex 7.4 1.9103 9.12931
vertex 0 3.09093 7.50431
vertex 7.4 3.09093 7.50431
endloop
endfacet
facet normal 0 -0.8090173750627982 -0.5877847283202411
outer loop
vertex 0 3.09093 7.50431
vertex 7.4 1.9103 9.12931
vertex 0 1.9103 9.12931
endloop
endfacet
facet normal 0 -0.9999999999999999 0
outer loop
vertex 7.4 3.09093 7.50431
vertex 0 3.09093 5.49569
vertex 7.4 3.09093 5.49569
endloop
endfacet
facet normal 0 -0.9999999999999999 0
outer loop
vertex 0 3.09093 5.49569
vertex 7.4 3.09093 7.50431
vertex 0 3.09093 7.50431
endloop
endfacet
facet normal 0 -0.8090173750627982 0.5877847283202412
outer loop
vertex 7.4 3.09093 5.49569
vertex 0 1.9103 3.87069
vertex 7.4 1.9103 3.87069
endloop
endfacet
facet normal 0 -0.8090173750627982 0.5877847283202412
outer loop
vertex 0 1.9103 3.87069
vertex 7.4 3.09093 5.49569
vertex 0 3.09093 5.49569
endloop
endfacet
facet normal 0 -0.3090151500076868 0.9510571155644266
outer loop
vertex 7.4 1.9103 3.87069
vertex 0 0 3.25
vertex 7.4 0 3.25
endloop
endfacet
facet normal 0 -0.3090151500076868 0.9510571155644266
outer loop
vertex 0 0 3.25
vertex 7.4 1.9103 3.87069
vertex 0 1.9103 3.87069
endloop
endfacet
facet normal 0 0.3090151500076868 0.9510571155644266
outer loop
vertex 0 0 3.25
vertex 7.4 -1.9103 3.87069
vertex 7.4 0 3.25
endloop
endfacet
facet normal 0 0.3090151500076868 0.9510571155644266
outer loop
vertex 7.4 -1.9103 3.87069
vertex 0 0 3.25
vertex 0 -1.9103 3.87069
endloop
endfacet
facet normal 0 0.8090173750627982 0.5877847283202412
outer loop
vertex 0 -1.9103 3.87069
vertex 7.4 -3.09093 5.49569
vertex 7.4 -1.9103 3.87069
endloop
endfacet
facet normal 0 0.8090173750627982 0.5877847283202412
outer loop
vertex 7.4 -3.09093 5.49569
vertex 0 -1.9103 3.87069
vertex 0 -3.09093 5.49569
endloop
endfacet
facet normal 0 0.9999999999999999 0
outer loop
vertex 0 -3.09093 5.49569
vertex 7.4 -3.09093 7.50431
vertex 7.4 -3.09093 5.49569
endloop
endfacet
facet normal 0 0.9999999999999999 0
outer loop
vertex 7.4 -3.09093 7.50431
vertex 0 -3.09093 5.49569
vertex 0 -3.09093 7.50431
endloop
endfacet
facet normal 1 0 0
outer loop
vertex 0 1.9103 9.12931
vertex 0 3.09093 5.49569
vertex 0 3.09093 7.50431
endloop
endfacet
facet normal 1 0 0
outer loop
vertex 0 1.9103 9.12931
vertex 0 1.9103 3.87069
vertex 0 3.09093 5.49569
endloop
endfacet
facet normal 1 0 0
outer loop
vertex 0 0 9.75
vertex 0 1.9103 3.87069
vertex 0 1.9103 9.12931
endloop
endfacet
facet normal 1 0 0
outer loop
vertex 0 0 9.75
vertex 0 0 3.25
vertex 0 1.9103 3.87069
endloop
endfacet
facet normal 1 0 0
outer loop
vertex 0 -1.9103 9.12931
vertex 0 0 3.25
vertex 0 0 9.75
endloop
endfacet
facet normal 0.9999999999999999 0 0
outer loop
vertex 0 -1.9103 9.12931
vertex 0 -1.9103 3.87069
vertex 0 0 3.25
endloop
endfacet
facet normal 1 0 0
outer loop
vertex 0 -3.09093 7.50431
vertex 0 -1.9103 3.87069
vertex 0 -1.9103 9.12931
endloop
endfacet
facet normal 1 0 0
outer loop
vertex 0 -1.9103 3.87069
vertex 0 -3.09093 7.50431
vertex 0 -3.09093 5.49569
endloop
endfacet
facet normal -1 0 0
outer loop
vertex -7.4 4.5 0
vertex -7.4 -4.5 11
vertex -7.4 4.5 11
endloop
endfacet
facet normal -1 0 0
outer loop
vertex -7.4 -4.5 11
vertex -7.4 4.5 0
vertex -7.4 -4.5 0
endloop
endfacet
facet normal 1 -8.608222452579376e-16 0
outer loop
vertex 7.4 3.09093 11
vertex 7.4 1.9103 9.12931
vertex 7.4 3.09093 7.50431
endloop
endfacet
facet normal 1 0 0
outer loop
vertex 7.4 1.9103 9.12931
vertex 7.4 3.09093 11
vertex 7.4 1.9103 11
endloop
endfacet
facet normal 1 -9.168429412308703e-16 0
outer loop
vertex 7.4 4.5 11
vertex 7.4 3.09093 7.50431
vertex 7.4 4.5 0
endloop
endfacet
facet normal 1 0 0
outer loop
vertex 7.4 3.09093 7.50431
vertex 7.4 4.5 11
vertex 7.4 3.09093 11
endloop
endfacet
facet normal 1 5.020995685365857e-15 0
outer loop
vertex 7.4 3.09093 5.49569
vertex 7.4 4.5 0
vertex 7.4 3.09093 7.50431
endloop
endfacet
facet normal 1 0 0
outer loop
vertex 7.4 4.5 0
vertex 7.4 3.09093 5.49569
vertex 7.4 3.09093 0
endloop
endfacet
facet normal 1 0 0
outer loop
vertex 7.4 1.9103 3.87069
vertex 7.4 3.09093 0
vertex 7.4 3.09093 5.49569
endloop
endfacet
facet normal 1 0 0
outer loop
vertex 7.4 3.09093 0
vertex 7.4 1.9103 3.87069
vertex 7.4 1.9103 0
endloop
endfacet
facet normal 1 0 0
outer loop
vertex 7.4 1.9103 3.87069
vertex 7.4 0 0
vertex 7.4 1.9103 0
endloop
endfacet
facet normal 1 -2.861180627127033e-16 0
outer loop
vertex 7.4 0 0
vertex 7.4 1.9103 3.87069
vertex 7.4 0 3.25
endloop
endfacet
facet normal 1 0 0
outer loop
vertex 7.4 0 11
vertex 7.4 1.9103 9.12931
vertex 7.4 1.9103 11
endloop
endfacet
facet normal 1 0 0
outer loop
vertex 7.4 1.9103 9.12931
vertex 7.4 0 11
vertex 7.4 0 9.75
endloop
endfacet
facet normal 1 7.439069630530282e-16 0
outer loop
vertex 7.4 0 11
vertex 7.4 -1.9103 9.12931
vertex 7.4 0 9.75
endloop
endfacet
facet normal 1 0 0
outer loop
vertex 7.4 -1.9103 9.12931
vertex 7.4 0 11
vertex 7.4 -1.9103 11
endloop
endfacet
facet normal 1 0 0
outer loop
vertex 7.4 -1.9103 3.87069
vertex 7.4 0 0
vertex 7.4 0 3.25
endloop
endfacet
facet normal 1 0 0
outer loop
vertex 7.4 0 0
vertex 7.4 -1.9103 3.87069
vertex 7.4 -1.9103 0
endloop
endfacet
facet normal 1 0 0
outer loop
vertex 7.4 -3.09093 5.49569
vertex 7.4 -1.9103 0
vertex 7.4 -1.9103 3.87069
endloop
endfacet
facet normal 1 0 0
outer loop
vertex 7.4 -1.9103 0
vertex 7.4 -3.09093 5.49569
vertex 7.4 -3.09093 0
endloop
endfacet
facet normal 1 0 0
outer loop
vertex 7.4 -3.09093 11
vertex 7.4 -1.9103 9.12931
vertex 7.4 -1.9103 11
endloop
endfacet
facet normal 1 1.7216444905158753e-15 0
outer loop
vertex 7.4 -1.9103 9.12931
vertex 7.4 -3.09093 11
vertex 7.4 -3.09093 7.50431
endloop
endfacet
facet normal 1 0 0
outer loop
vertex 7.4 -4.5 11
vertex 7.4 -3.09093 0
vertex 7.4 -3.09093 11
endloop
endfacet
facet normal 1 0 0
outer loop
vertex 7.4 -3.09093 0
vertex 7.4 -4.5 11
vertex 7.4 -4.5 0
endloop
endfacet
facet normal 0 -1 0
outer loop
vertex 7.4 -4.5 11
vertex 4.45 -4.5 0
vertex 7.4 -4.5 0
endloop
endfacet
facet normal 0 -1 1.1534784671430194e-16
outer loop
vertex 7.4 -4.5 11
vertex 1.65 -4.5 0
vertex 4.45 -4.5 0
endloop
endfacet
facet normal 0 -1 -9.787090024243801e-17
outer loop
vertex 7.4 -4.5 11
vertex -1.65 -4.5 0
vertex 1.65 -4.5 0
endloop
endfacet
facet normal 0 -1 0
outer loop
vertex 7.4 -4.5 11
vertex -4.45 -4.5 0
vertex -1.65 -4.5 0
endloop
endfacet
facet normal 0 -1 -8.729026237839068e-17
outer loop
vertex -7.4 -4.5 11
vertex -4.45 -4.5 0
vertex 7.4 -4.5 11
endloop
endfacet
facet normal 0 -1 0
outer loop
vertex -4.45 -4.5 0
vertex -7.4 -4.5 11
vertex -7.4 -4.5 0
endloop
endfacet
facet normal 0 0 1
outer loop
vertex -7.4 4.5 11
vertex 7.4 3.09093 11
vertex 7.4 4.5 11
endloop
endfacet
facet normal -4.066442857467191e-16 0 1
outer loop
vertex -7.4 4.5 11
vertex 7.4 1.9103 11
vertex 7.4 3.09093 11
endloop
endfacet
facet normal 0 0 1
outer loop
vertex -7.4 4.5 11
vertex 7.4 -3.09093 11
vertex 7.4 1.9103 11
endloop
endfacet
facet normal 0 0 1
outer loop
vertex -7.4 -4.5 11
vertex 7.4 -3.09093 11
vertex -7.4 4.5 11
endloop
endfacet
facet normal 0 0 1
outer loop
vertex 7.4 -3.09093 11
vertex -7.4 -4.5 11
vertex 7.4 -4.5 11
endloop
endfacet
facet normal 0 1 0
outer loop
vertex 4.45 4.5 0
vertex 7.4 4.5 11
vertex 7.4 4.5 0
endloop
endfacet
facet normal 0 1 1.1534784671430194e-16
outer loop
vertex 1.65 4.5 0
vertex 7.4 4.5 11
vertex 4.45 4.5 0
endloop
endfacet
facet normal 0 1 0
outer loop
vertex -1.65 4.5 0
vertex 7.4 4.5 11
vertex 1.65 4.5 0
endloop
endfacet
facet normal 0 1 0
outer loop
vertex -4.45 4.5 0
vertex 7.4 4.5 11
vertex -1.65 4.5 0
endloop
endfacet
facet normal 0 1 -4.379308078644685e-16
outer loop
vertex -7.4 4.5 0
vertex 7.4 4.5 11
vertex -4.45 4.5 0
endloop
endfacet
facet normal 0 1 0
outer loop
vertex 7.4 4.5 11
vertex -7.4 4.5 0
vertex -7.4 4.5 11
endloop
endfacet
facet normal 0 0 -1
outer loop
vertex 7.4 -4.5 0
vertex 4.45 -4.5 0
vertex 7.4 -3.09093 0
endloop
endfacet
facet normal 0 0 -1
outer loop
vertex 4.45 -4.5 0
vertex 7.4 4.5 0
vertex 7.4 -3.09093 0
endloop
endfacet
facet normal 0 0 -1
outer loop
vertex 4.45 -4.5 0
vertex 4.45 4.5 0
vertex 7.4 4.5 0
endloop
endfacet
facet normal 0 0 -1
outer loop
vertex 1.65 -4.5 0
vertex 4.45 4.5 0
vertex 4.45 -4.5 0
endloop
endfacet
facet normal 0 0 -1
outer loop
vertex 1.65 -4.5 0
vertex 1.65 4.5 0
vertex 4.45 4.5 0
endloop
endfacet
facet normal 0 0 -1
outer loop
vertex -1.65 -4.5 0
vertex 1.65 4.5 0
vertex 1.65 -4.5 0
endloop
endfacet
facet normal 0 0 -1
outer loop
vertex -1.65 -4.5 0
vertex -1.65 4.5 0
vertex 1.65 4.5 0
endloop
endfacet
facet normal 0 0 -1
outer loop
vertex -4.45 -4.5 0
vertex -1.65 4.5 0
vertex -1.65 -4.5 0
endloop
endfacet
facet normal 0 0 -1
outer loop
vertex -4.45 -4.5 0
vertex -4.45 4.5 0
vertex -1.65 4.5 0
endloop
endfacet
facet normal 0 0 -1
outer loop
vertex -4.45 -4.5 0
vertex -7.4 4.5 0
vertex -4.45 4.5 0
endloop
endfacet
facet normal 0 0 -1
outer loop
vertex -7.4 4.5 0
vertex -4.45 -4.5 0
vertex -7.4 -4.5 0
endloop
endfacet
endsolid JSxCAD
