solid JSxCAD
facet normal -0.9999999999999999 0 0
outer loop
vertex -4.45 -6.9 0
vertex -4.45 6.9 0.2
vertex -4.45 6.9 0
endloop
endfacet
facet normal -0.9999999999999999 0 0
outer loop
vertex -4.45 6.9 0.2
vertex -4.45 -6.9 0
vertex -4.45 -6.9 0.2
endloop
endfacet
facet normal 0 1 0
outer loop
vertex -4.45 6.9 0
vertex -1.65 6.9 0.2
vertex -1.65 6.9 0
endloop
endfacet
facet normal 0 1 0
outer loop
vertex -1.65 6.9 0.2
vertex -4.45 6.9 0
vertex -4.45 6.9 0.2
endloop
endfacet
facet normal 0.9999999999999999 0 0
outer loop
vertex -1.65 -6.9 0
vertex -1.65 6.9 0.2
vertex -1.65 -6.9 0.2
endloop
endfacet
facet normal 0.9999999999999999 0 0
outer loop
vertex -1.65 6.9 0.2
vertex -1.65 -6.9 0
vertex -1.65 6.9 0
endloop
endfacet
facet normal 0 -1 0
outer loop
vertex -4.45 -6.9 0.2
vertex -1.65 -6.9 0
vertex -1.65 -6.9 0.2
endloop
endfacet
facet normal 0 -1 0
outer loop
vertex -1.65 -6.9 0
vertex -4.45 -6.9 0.2
vertex -4.45 -6.9 0
endloop
endfacet
facet normal 0 0 1
outer loop
vertex -4.45 6.9 0.2
vertex -1.65 -6.9 0.2
vertex -1.65 6.9 0.2
endloop
endfacet
facet normal 0 0 1
outer loop
vertex -1.65 -6.9 0.2
vertex -4.45 6.9 0.2
vertex -4.45 -6.9 0.2
endloop
endfacet
facet normal 0 0 -1
outer loop
vertex -4.45 -6.9 0
vertex -1.65 6.9 0
vertex -1.65 -6.9 0
endloop
endfacet
facet normal 0 0 -1
outer loop
vertex -1.65 6.9 0
vertex -4.45 -6.9 0
vertex -4.45 6.9 0
endloop
endfacet
facet normal -0.9999999999999999 0 0
outer loop
vertex 1.65 6.9 0
vertex 1.65 -6.9 0.2
vertex 1.65 6.9 0.2
endloop
endfacet
facet normal -0.9999999999999999 0 0
outer loop
vertex 1.65 -6.9 0.2
vertex 1.65 6.9 0
vertex 1.65 -6.9 0
endloop
endfacet
facet normal 0 1 0
outer loop
vertex 1.65 6.9 0
vertex 4.45 6.9 0.2
vertex 4.45 6.9 0
endloop
endfacet
facet normal 0 1 0
outer loop
vertex 4.45 6.9 0.2
vertex 1.65 6.9 0
vertex 1.65 6.9 0.2
endloop
endfacet
facet normal 0.9999999999999999 0 0
outer loop
vertex 4.45 -6.9 0.2
vertex 4.45 6.9 0
vertex 4.45 6.9 0.2
endloop
endfacet
facet normal 0.9999999999999999 0 0
outer loop
vertex 4.45 6.9 0
vertex 4.45 -6.9 0.2
vertex 4.45 -6.9 0
endloop
endfacet
facet normal 0 -1 0
outer loop
vertex 1.65 -6.9 0.2
vertex 4.45 -6.9 0
vertex 4.45 -6.9 0.2
endloop
endfacet
facet normal 0 -1 0
outer loop
vertex 4.45 -6.9 0
vertex 1.65 -6.9 0.2
vertex 1.65 -6.9 0
endloop
endfacet
facet normal 0 0 1
outer loop
vertex 1.65 6.9 0.2
vertex 4.45 -6.9 0.2
vertex 4.45 6.9 0.2
endloop
endfacet
facet normal 0 0 1
outer loop
vertex 4.45 -6.9 0.2
vertex 1.65 6.9 0.2
vertex 1.65 -6.9 0.2
endloop
endfacet
facet normal 0 0 -1
outer loop
vertex 4.45 -6.9 0
vertex 1.65 6.9 0
vertex 4.45 6.9 0
endloop
endfacet
facet normal 0 0 -1
outer loop
vertex 1.65 6.9 0
vertex 4.45 -6.9 0
vertex 1.65 -6.9 0
endloop
endfacet
endsolid JSxCAD
