solid JSxCAD
facet normal 0 -1 0
outer loop
vertex -4.45 4.5 0.2
vertex -1.65 4.5 0
vertex -1.65 4.5 0.2
endloop
endfacet
facet normal 0 -1 0
outer loop
vertex -1.65 4.5 0
vertex -4.45 4.5 0.2
vertex -4.45 4.5 0
endloop
endfacet
facet normal 0 1 0
outer loop
vertex -4.45 -4.5 0
vertex -1.65 -4.5 0.2
vertex -1.65 -4.5 0
endloop
endfacet
facet normal 0 1 0
outer loop
vertex -1.65 -4.5 0.2
vertex -4.45 -4.5 0
vertex -4.45 -4.5 0.2
endloop
endfacet
facet normal -1 0 0
outer loop
vertex -4.45 -4.5 0
vertex -4.45 -6.9 0.2
vertex -4.45 -4.5 0.2
endloop
endfacet
facet normal -1 0 0
outer loop
vertex -4.45 -6.9 0.2
vertex -4.45 -4.5 0
vertex -4.45 -6.9 0
endloop
endfacet
facet normal -1 0 0
outer loop
vertex -4.45 6.9 0
vertex -4.45 4.5 0.2
vertex -4.45 6.9 0.2
endloop
endfacet
facet normal -1 0 0
outer loop
vertex -4.45 4.5 0.2
vertex -4.45 6.9 0
vertex -4.45 4.5 0
endloop
endfacet
facet normal 0 1 0
outer loop
vertex -1.65 6.9 0
vertex -4.45 6.9 0.2
vertex -1.65 6.9 0.2
endloop
endfacet
facet normal 0 1 0
outer loop
vertex -4.45 6.9 0.2
vertex -1.65 6.9 0
vertex -4.45 6.9 0
endloop
endfacet
facet normal 1 0 0
outer loop
vertex -1.65 4.5 0
vertex -1.65 6.9 0.2
vertex -1.65 4.5 0.2
endloop
endfacet
facet normal 1 0 0
outer loop
vertex -1.65 6.9 0.2
vertex -1.65 4.5 0
vertex -1.65 6.9 0
endloop
endfacet
facet normal 1 0 0
outer loop
vertex -1.65 -6.9 0
vertex -1.65 -4.5 0.2
vertex -1.65 -6.9 0.2
endloop
endfacet
facet normal 1 0 0
outer loop
vertex -1.65 -4.5 0.2
vertex -1.65 -6.9 0
vertex -1.65 -4.5 0
endloop
endfacet
facet normal 0 0 1
outer loop
vertex -1.65 -4.5 0.2
vertex -4.45 -6.9 0.2
vertex -1.65 -6.9 0.2
endloop
endfacet
facet normal 0 0 1
outer loop
vertex -4.45 -6.9 0.2
vertex -1.65 -4.5 0.2
vertex -4.45 -4.5 0.2
endloop
endfacet
facet normal 0 0 1
outer loop
vertex -4.45 6.9 0.2
vertex -1.65 4.5 0.2
vertex -1.65 6.9 0.2
endloop
endfacet
facet normal 0 0 1
outer loop
vertex -1.65 4.5 0.2
vertex -4.45 6.9 0.2
vertex -4.45 4.5 0.2
endloop
endfacet
facet normal 0 0 -1
outer loop
vertex -1.65 4.5 0
vertex -4.45 6.9 0
vertex -1.65 6.9 0
endloop
endfacet
facet normal 0 0 -1
outer loop
vertex -4.45 6.9 0
vertex -1.65 4.5 0
vertex -4.45 4.5 0
endloop
endfacet
facet normal 0 0 -1
outer loop
vertex -4.45 -6.9 0
vertex -1.65 -4.5 0
vertex -1.65 -6.9 0
endloop
endfacet
facet normal 0 0 -1
outer loop
vertex -1.65 -4.5 0
vertex -4.45 -6.9 0
vertex -4.45 -4.5 0
endloop
endfacet
facet normal 0 -1 0
outer loop
vertex -4.45 -6.9 0
vertex -1.65 -6.9 0.2
vertex -4.45 -6.9 0.2
endloop
endfacet
facet normal 0 -1 0
outer loop
vertex -1.65 -6.9 0.2
vertex -4.45 -6.9 0
vertex -1.65 -6.9 0
endloop
endfacet
facet normal 0 -1 0
outer loop
vertex 1.65 4.5 0.2
vertex 4.45 4.5 0
vertex 4.45 4.5 0.2
endloop
endfacet
facet normal 0 -1 0
outer loop
vertex 4.45 4.5 0
vertex 1.65 4.5 0.2
vertex 1.65 4.5 0
endloop
endfacet
facet normal 0 1 0
outer loop
vertex 1.65 -4.5 0
vertex 4.45 -4.5 0.2
vertex 4.45 -4.5 0
endloop
endfacet
facet normal 0 1 0
outer loop
vertex 4.45 -4.5 0.2
vertex 1.65 -4.5 0
vertex 1.65 -4.5 0.2
endloop
endfacet
facet normal -1 0 0
outer loop
vertex 1.65 -4.5 0
vertex 1.65 -6.9 0.2
vertex 1.65 -4.5 0.2
endloop
endfacet
facet normal -1 0 0
outer loop
vertex 1.65 -6.9 0.2
vertex 1.65 -4.5 0
vertex 1.65 -6.9 0
endloop
endfacet
facet normal -1 0 0
outer loop
vertex 1.65 6.9 0
vertex 1.65 4.5 0.2
vertex 1.65 6.9 0.2
endloop
endfacet
facet normal -1 0 0
outer loop
vertex 1.65 4.5 0.2
vertex 1.65 6.9 0
vertex 1.65 4.5 0
endloop
endfacet
facet normal 0 1 0
outer loop
vertex 1.65 6.9 0
vertex 4.45 6.9 0.2
vertex 4.45 6.9 0
endloop
endfacet
facet normal 0 1 0
outer loop
vertex 4.45 6.9 0.2
vertex 1.65 6.9 0
vertex 1.65 6.9 0.2
endloop
endfacet
facet normal 1 0 0
outer loop
vertex 4.45 -6.9 0
vertex 4.45 -4.5 0.2
vertex 4.45 -6.9 0.2
endloop
endfacet
facet normal 1 0 0
outer loop
vertex 4.45 -4.5 0.2
vertex 4.45 -6.9 0
vertex 4.45 -4.5 0
endloop
endfacet
facet normal 1 0 0
outer loop
vertex 4.45 4.5 0
vertex 4.45 6.9 0.2
vertex 4.45 4.5 0.2
endloop
endfacet
facet normal 1 0 0
outer loop
vertex 4.45 6.9 0.2
vertex 4.45 4.5 0
vertex 4.45 6.9 0
endloop
endfacet
facet normal 0 0 1
outer loop
vertex 1.65 -4.5 0.2
vertex 4.45 -6.9 0.2
vertex 4.45 -4.5 0.2
endloop
endfacet
facet normal 0 0 1
outer loop
vertex 4.45 -6.9 0.2
vertex 1.65 -4.5 0.2
vertex 1.65 -6.9 0.2
endloop
endfacet
facet normal 0 0 1
outer loop
vertex 4.45 6.9 0.2
vertex 1.65 4.5 0.2
vertex 4.45 4.5 0.2
endloop
endfacet
facet normal 0 0 1
outer loop
vertex 1.65 4.5 0.2
vertex 4.45 6.9 0.2
vertex 1.65 6.9 0.2
endloop
endfacet
facet normal 0 0 -1
outer loop
vertex 1.65 4.5 0
vertex 4.45 6.9 0
vertex 4.45 4.5 0
endloop
endfacet
facet normal 0 0 -1
outer loop
vertex 4.45 6.9 0
vertex 1.65 4.5 0
vertex 1.65 6.9 0
endloop
endfacet
facet normal 0 0 -1
outer loop
vertex 4.45 -6.9 0
vertex 1.65 -4.5 0
vertex 4.45 -4.5 0
endloop
endfacet
facet normal 0 0 -1
outer loop
vertex 1.65 -4.5 0
vertex 4.45 -6.9 0
vertex 1.65 -6.9 0
endloop
endfacet
facet normal 0 -1 0
outer loop
vertex 1.65 -6.9 0
vertex 4.45 -6.9 0.2
vertex 1.65 -6.9 0.2
endloop
endfacet
facet normal 0 -1 0
outer loop
vertex 4.45 -6.9 0.2
vertex 1.65 -6.9 0
vertex 4.45 -6.9 0
endloop
endfacet
facet normal -1 0 0
outer loop
vertex -7.4 4.5 0
vertex -7.4 -4.5 11
vertex -7.4 4.5 11
endloop
endfacet
facet normal -1 0 0
outer loop
vertex -7.4 -4.5 11
vertex -7.4 4.5 0
vertex -7.4 -4.5 0
endloop
endfacet
facet normal 0 1 0
outer loop
vertex 4.45 4.5 0
vertex 7.4 4.5 11
vertex 7.4 4.5 0
endloop
endfacet
facet normal 0 1 1.1534784671430194e-16
outer loop
vertex 1.65 4.5 0
vertex 7.4 4.5 11
vertex 4.45 4.5 0
endloop
endfacet
facet normal 0 1 0
outer loop
vertex -1.65 4.5 0
vertex 7.4 4.5 11
vertex 1.65 4.5 0
endloop
endfacet
facet normal 0 1 0
outer loop
vertex -4.45 4.5 0
vertex 7.4 4.5 11
vertex -1.65 4.5 0
endloop
endfacet
facet normal 0 1 -4.379308078644685e-16
outer loop
vertex -7.4 4.5 0
vertex 7.4 4.5 11
vertex -4.45 4.5 0
endloop
endfacet
facet normal 0 1 0
outer loop
vertex 7.4 4.5 11
vertex -7.4 4.5 0
vertex -7.4 4.5 11
endloop
endfacet
facet normal 1 0 0
outer loop
vertex 7.4 -4.5 0
vertex 7.4 4.5 11
vertex 7.4 -4.5 11
endloop
endfacet
facet normal 1 0 0
outer loop
vertex 7.4 4.5 11
vertex 7.4 -4.5 0
vertex 7.4 4.5 0
endloop
endfacet
facet normal 0 -1 0
outer loop
vertex 7.4 -4.5 11
vertex 4.45 -4.5 0
vertex 7.4 -4.5 0
endloop
endfacet
facet normal 0 -1 1.1534784671430194e-16
outer loop
vertex 7.4 -4.5 11
vertex 1.65 -4.5 0
vertex 4.45 -4.5 0
endloop
endfacet
facet normal 0 -1 -9.787090024243801e-17
outer loop
vertex 7.4 -4.5 11
vertex -1.65 -4.5 0
vertex 1.65 -4.5 0
endloop
endfacet
facet normal 0 -1 0
outer loop
vertex 7.4 -4.5 11
vertex -4.45 -4.5 0
vertex -1.65 -4.5 0
endloop
endfacet
facet normal 0 -1 -8.729026237839068e-17
outer loop
vertex -7.4 -4.5 11
vertex -4.45 -4.5 0
vertex 7.4 -4.5 11
endloop
endfacet
facet normal 0 -1 0
outer loop
vertex -4.45 -4.5 0
vertex -7.4 -4.5 11
vertex -7.4 -4.5 0
endloop
endfacet
facet normal 0 0 1
outer loop
vertex -7.4 4.5 11
vertex 7.4 -4.5 11
vertex 7.4 4.5 11
endloop
endfacet
facet normal 0 0 1
outer loop
vertex 7.4 -4.5 11
vertex -7.4 4.5 11
vertex -7.4 -4.5 11
endloop
endfacet
facet normal 0 0 -1
outer loop
vertex 4.45 -4.5 0
vertex 7.4 4.5 0
vertex 7.4 -4.5 0
endloop
endfacet
facet normal 0 0 -1
outer loop
vertex 4.45 -4.5 0
vertex 4.45 4.5 0
vertex 7.4 4.5 0
endloop
endfacet
facet normal 0 0 -1
outer loop
vertex 4.45 -4.5 0
vertex 1.65 4.5 0
vertex 4.45 4.5 0
endloop
endfacet
facet normal 0 0 -1
outer loop
vertex 1.65 -4.5 0
vertex 1.65 4.5 0
vertex 4.45 -4.5 0
endloop
endfacet
facet normal 0 0 -1
outer loop
vertex -1.65 -4.5 0
vertex 1.65 4.5 0
vertex 1.65 -4.5 0
endloop
endfacet
facet normal 0 0 -1
outer loop
vertex -1.65 -4.5 0
vertex -1.65 4.5 0
vertex 1.65 4.5 0
endloop
endfacet
facet normal 0 0 -1
outer loop
vertex -4.45 -4.5 0
vertex -1.65 4.5 0
vertex -1.65 -4.5 0
endloop
endfacet
facet normal 0 0 -1
outer loop
vertex -4.45 -4.5 0
vertex -4.45 4.5 0
vertex -1.65 4.5 0
endloop
endfacet
facet normal 0 0 -1
outer loop
vertex -4.45 -4.5 0
vertex -7.4 4.5 0
vertex -4.45 4.5 0
endloop
endfacet
facet normal 0 0 -1
outer loop
vertex -7.4 4.5 0
vertex -4.45 -4.5 0
vertex -7.4 -4.5 0
endloop
endfacet
endsolid JSxCAD
